<svg width="321" height="184" viewBox="0 0 321 184" fill="none" xmlns="http://www.w3.org/2000/svg">
<path d="M247.227 59.017C259.681 59.0171 268.118 63.0897 272.706 69.7529C277.279 76.3957 277.888 85.4127 275.135 95.0132C269.673 114.055 250.893 135.814 222.04 147.474C224.286 153.952 233.149 165.91 252.959 165.91C263.198 165.91 274.497 160.807 284.523 154.224C294.53 147.653 303.152 139.686 308.017 134.122L308.068 134.064L308.13 134.016C310.102 132.476 312.154 131.816 314.057 131.918C315.96 132.021 317.65 132.881 318.883 134.258C321.356 137.022 321.925 141.74 319.169 146.584L319.132 146.648L319.084 146.706C314 152.779 304.937 162.085 293.432 169.88C281.932 177.672 267.921 184 252.959 184C223.767 184 207.25 162.299 202.587 151.392C200.482 152.459 198.187 154.359 195.485 156.761C192.498 159.417 189.062 162.636 184.987 165.743C176.811 171.98 166.005 177.827 150.639 178.244C138.595 178.571 130.988 173.933 126.102 168.011C121.823 162.823 119.665 156.687 118.371 152.202C112.126 161.264 98.6865 178.244 70.3803 178.244C62.4468 178.244 56.4275 176.091 51.9012 172.532C47.3845 168.98 44.4179 164.078 42.4889 158.685C38.9155 148.694 38.8502 136.858 39.1868 128.308C34.0822 132.798 27.3635 139.337 20.9363 143.986C17.4022 146.542 13.8598 148.602 10.6142 149.46C7.34837 150.324 4.26834 149.991 1.87195 147.604C0.375475 146.399 -0.654343 144.023 0.487131 140.822C1.61905 137.649 4.86447 133.688 11.7959 129.047C20.313 123.344 29.4663 114.769 37.2039 105.362C44.9471 95.9485 51.2224 85.7629 54.044 76.8577C56.9747 67.6074 63.0145 64.0359 67.9097 65.2064C70.3324 65.7861 72.3315 67.525 73.3195 70.1046C74.3044 72.6773 74.2682 76.0302 72.7806 79.8721C69.9186 87.2634 62.3701 107.962 59.1099 126.789C57.4769 136.22 56.9413 145.073 58.5358 151.529C59.3305 154.745 60.6392 157.302 62.5416 159.053C64.429 160.789 66.9729 161.799 70.3803 161.799C84.2981 161.799 95.3469 153.238 104.799 137.629C114.257 122.01 122.01 99.494 129.357 71.9595C131.452 63.5607 136.817 59.3597 141.508 59.9485C143.867 60.245 145.887 61.7617 147.015 64.3247C148.133 66.8657 148.369 70.4024 147.319 74.8294C145.247 83.5684 138.322 105.016 135.873 124.386C134.648 134.073 134.568 143.096 136.709 149.66C137.775 152.926 139.376 155.538 141.615 157.333C143.846 159.121 146.78 160.155 150.616 160.155C163.057 160.154 170.864 155.537 177.633 150.058C179.333 148.682 180.965 147.253 182.595 145.823C184.222 144.396 185.85 142.966 187.52 141.606C190.707 139.011 194.085 136.644 198.033 134.967C196.478 122.146 197.014 103.431 203.654 87.7815C207.033 79.8177 212.008 72.6178 219.118 67.4098C226.237 62.1968 235.447 59.017 247.227 59.017ZM244.79 74.6415C237.552 74.4725 231.807 76.7352 227.309 80.5434C222.828 84.338 219.624 89.6317 217.379 95.4757C212.893 107.153 212.156 121.224 212.844 130.614L212.906 131.469L213.752 131.371C221.114 130.526 228.978 126.635 236.051 121.333C243.133 116.025 249.495 109.248 253.849 102.532C258.174 95.8615 260.633 89.0712 259.596 83.7955C259.069 81.1134 257.639 78.845 255.162 77.2399C252.708 75.6505 249.279 74.7464 244.79 74.6415ZM210.384 3.10354C213.659 -0.185333 218.783 -0.590472 220.209 0.636765C231.671 10.5034 249.684 25.3045 256.233 31.0603C262.782 36.8162 257.865 47.5037 248.041 45.037C245.184 44.3194 239.562 38.9233 235.762 35.9922C226.499 28.847 221.027 22.8377 210.384 13.7929C207.109 11.0099 208.337 5.80164 210.384 3.10354Z" fill="white" style="fill:white;fill-opacity:1;"/>
</svg>
